<?xml version="1.0" encoding="utf-8" ?><svg xmlns="http://www.w3.org/2000/svg" xmlns:xlink="http://www.w3.org/1999/xlink" width="1216" height="896" viewBox="0 0 1216 896"><path fill="#039C9C" d="M0 0L1216 0L1216 896L0 896L0 0Z"/><path fill="#D8CCC8" d="M541.174 150.484C546.881 150.058 553.145 147.335 558.009 147.329C570.246 147.314 583.053 145.469 595.002 148.112C597.373 148.636 600.373 148.534 602.845 148.546C618.096 148.165 651.707 154.567 667.174 158.215L670.637 159.457L675.159 160.707C680.876 164.868 689.133 164.135 696.033 165.023C697.576 165.222 700.724 165.975 701.801 166.029L703.832 166.491L712.092 170.177L716.47 170.686C718.968 171.323 721.748 171.94 724.139 172.836L728.538 174.751C738.362 178.209 738.679 181.459 746.337 185.31L749.17 186.327C752.252 187.326 755.116 188.276 758.261 189.06L760.818 190.615C764.455 191.769 765.122 192.091 768.37 194.102C780.74 201.332 793.198 207.425 805.756 214.187C813.324 218.262 821.068 226.62 828.367 231.456C836.705 237.708 852.048 245.343 857.385 254.24C860.253 257.144 877.99 274.035 878.572 276.696C877.844 282.635 874.483 286.564 867.999 285.482C857.562 283.74 857.318 272.552 849.213 267.659C846.872 266.245 844.798 264.81 842.305 263.426C837.827 266.406 836.475 267.315 831.197 267.981L831.482 268.538C830.201 270.323 831.039 270.241 830.51 271.971C832.034 273.4 832.545 273.842 834.308 274.952C834.292 274.773 834.214 275.086 834.558 273.968L837.88 273.982C848.271 283.042 855.768 289.517 864.973 299.883C881.829 294.138 885.122 299.274 895.947 310.331C896.977 311.382 905.48 315.537 907.266 316.485C912.939 328.903 914.288 337.503 927.382 344.263L932.823 347.102C935.213 349.305 937.903 353.488 939.182 354.346L939.932 354.888C937.534 360.258 938.801 360.575 940.771 365.902C942.894 371.642 946.075 381.398 945.747 387.516C951.72 401.521 955.167 420.536 958.989 435.49C959.898 439.047 960.209 446.311 960.936 450.331C962.215 457.4 963.533 464.533 964.419 471.664C967.605 490.24 961.58 510.747 956.278 528.264C954.928 532.722 953.531 539.628 952.029 543.672C950.747 547.052 947.889 556.089 945.257 557.805C939.418 567.474 936.721 580.073 931.761 589.734C920.082 612.482 894.921 650.993 872.033 663.421L871.443 663.814C865.064 668.095 867.766 674.235 865.813 680.565C851.609 726.611 820.582 763.995 778.479 787.192C774.345 789.47 770.042 794.48 765.694 796.795C752.732 803.355 735.64 809.147 721.219 811.159C717.195 811.72 703.898 810.632 699.847 810.298C688.374 809.352 672.697 808.403 661.826 811.732C643.118 817.462 639.7 836.958 618.96 840.313C614.499 841.035 610.41 841.862 605.737 840.847C593.91 837.908 589.937 831.22 577.171 829.48C558.447 826.928 543.311 841.611 525.782 838.171C510.976 835.265 496.639 825.099 486.948 814.17C479.785 806.092 464.907 804.008 454.985 804.27C448.386 804.722 440.503 805.696 435.095 809.833C423.997 818.324 410.799 822.498 396.899 819.559C393.171 818.771 380.017 819.121 380.296 813.483C382.927 812.502 404.714 818.396 412.813 813.134C435.243 798.559 437.39 777.961 469.496 776.86C474.707 781.16 492.384 787.448 499.408 786.586C508.926 785.419 517.832 775.391 527.71 775.026C544.612 774.402 555.845 789.32 569.236 770.923C577.022 760.228 587.845 756.213 600.835 755.823C613.308 755.512 624.539 761.949 636.89 755.445C640.577 753.504 645.882 750.7 647.509 746.531C631.037 745.432 622.118 742.912 606.806 737.049C602.083 735.241 595.708 734.744 590.495 732.787L588.467 731.097C581.247 727.496 546.247 718.553 543.263 712.579C545.586 711.774 544.761 712.336 546.36 710.401C548.568 702.088 529.277 688.95 534.662 677.213C537.781 670.413 537.992 671.461 543.607 667.834C554.562 669.687 555.806 671.779 565.026 674.646C578.16 678.731 591.245 683.955 604.739 685.897C617.237 687.697 627.336 684.288 639.234 684.729C647.297 684.515 655.317 683.488 663.173 681.665C673.308 679.323 682.148 675.791 691.9 672.537C704.113 668.462 726.144 661.325 736.957 654.906C740.81 653.708 746.634 652.404 749.528 649.89C747.403 647.859 738.354 647.966 734.878 646.672C729.326 644.605 724.083 641.874 718.612 639.626C705.392 634.195 689.999 646.452 681.619 655.514C679.107 658.231 673.992 666.604 671.295 667.827L670.97 667.077C674.329 650.537 680.354 632.339 691.798 619.48C705.874 603.662 728.248 609.126 741.568 592.262C756.034 573.752 747.101 552.917 759.139 532.551C772.402 510.112 796.202 523.759 809.993 504.886C810.747 503.855 812.33 497.446 813.486 495.31C800.106 449.754 731.199 395.91 685.241 386.789C682.246 386.195 680.122 384.495 676.962 384.777C672.696 384.874 673.432 384.983 669.421 383.274C655.171 377.207 639.866 371.729 624.692 368.682C621.869 368.115 618.203 368.992 615.581 370.035C610.784 366.945 599.04 365.768 591.615 359.715C611.813 342.35 625.32 325.121 607.676 299.26C605.538 300.729 606.198 299.919 605.194 302.327C608.707 315.459 608.6 332.35 597.277 342.34C590.123 348.652 581.01 355.078 571.208 354.473C564.996 354.09 561.555 352.243 556.063 349.504C528.481 339.278 493.437 322.263 473.643 300.369C469.28 299.542 449.529 291.125 445.472 289.006C434.529 276.093 433.659 269.808 435.044 252.967C436.27 253.054 436.255 252.818 437.527 252.233C436.419 250.079 435.637 250.121 434.901 247.505C433.326 241.91 430.691 236.764 429.396 230.977C427.056 220.519 435.604 210.772 440.025 201.879C442.181 197.541 443.789 194.059 446.493 189.942C449.771 188.342 453.618 186.364 456.966 185.015C461.061 183.366 464.345 182.743 468.376 180.788L466.381 177.633C467.77 177.347 474.853 174.228 477.973 173.362L478.995 173.104C481.851 168.405 495.442 167.779 502.104 163.765C508.313 159.219 534.06 149.498 541.174 150.484Z"/><path fill="#F3480E" d="M541.174 150.484C546.881 150.058 553.145 147.335 558.009 147.329C570.246 147.314 583.053 145.469 595.002 148.112C597.373 148.636 600.373 148.534 602.845 148.546C618.096 148.165 651.707 154.567 667.174 158.215L670.637 159.457L675.159 160.707C680.876 164.868 689.133 164.135 696.033 165.023C697.576 165.222 700.724 165.975 701.801 166.029L703.832 166.491L712.092 170.177L716.47 170.686C718.968 171.323 721.748 171.94 724.139 172.836L728.538 174.751C738.362 178.209 738.679 181.459 746.337 185.31L749.17 186.327C752.252 187.326 755.116 188.276 758.261 189.06L760.818 190.615C764.455 191.769 765.122 192.091 768.37 194.102C780.74 201.332 793.198 207.425 805.756 214.187C813.324 218.262 821.068 226.62 828.367 231.456C836.705 237.708 852.048 245.343 857.385 254.24C860.253 257.144 877.99 274.035 878.572 276.696C877.844 282.635 874.483 286.564 867.999 285.482C857.562 283.74 857.318 272.552 849.213 267.659C846.872 266.245 844.798 264.81 842.305 263.426C837.827 266.406 836.475 267.315 831.197 267.981C804.816 245.416 768.449 227.525 734.619 218.16C716.963 213.272 682.811 204.87 664.288 213.514C662.878 214.172 662.299 214.81 661.99 216.128C664.545 218.052 672.4 214.834 675.677 214.857C690.169 214.96 711.363 218.86 723.849 225.781C740.192 224.144 792.541 262.199 806.479 273.422C810.805 276.905 819.203 283.914 823.129 287.865C825.291 290.224 829.122 295.261 830.809 296.96C834.144 302.339 839.454 306.117 843.186 311.346C855.863 329.105 865.235 351.259 870.264 372.402C872.909 383.524 864.269 394.283 856.616 400.899C839.336 413.999 828.506 431.452 830.028 453.758C830.891 466.399 827.665 476.067 819.973 486.374C818.018 489.002 815.953 493.489 813.486 495.31C800.106 449.754 731.199 395.91 685.241 386.789C682.246 386.195 680.122 384.495 676.962 384.777C672.696 384.874 673.432 384.983 669.421 383.274C655.171 377.207 639.866 371.729 624.692 368.682C621.869 368.115 618.203 368.992 615.581 370.035C610.784 366.945 599.04 365.768 591.615 359.715C611.813 342.35 625.32 325.121 607.676 299.26C605.538 300.729 606.198 299.919 605.194 302.327C608.707 315.459 608.6 332.35 597.277 342.34C590.123 348.652 581.01 355.078 571.208 354.473C564.996 354.09 561.555 352.243 556.063 349.504C528.481 339.278 493.437 322.263 473.643 300.369C469.28 299.542 449.529 291.125 445.472 289.006C434.529 276.093 433.659 269.808 435.044 252.967C436.27 253.054 436.255 252.818 437.527 252.233C436.419 250.079 435.637 250.121 434.901 247.505C433.326 241.91 430.691 236.764 429.396 230.977C427.056 220.519 435.604 210.772 440.025 201.879C442.181 197.541 443.789 194.059 446.493 189.942C449.771 188.342 453.618 186.364 456.966 185.015C461.061 183.366 464.345 182.743 468.376 180.788L466.381 177.633C467.77 177.347 474.853 174.228 477.973 173.362L478.995 173.104C481.851 168.405 495.442 167.779 502.104 163.765C508.313 159.219 534.06 149.498 541.174 150.484Z"/><path fill="#FAE9C3" d="M723.849 225.781C740.192 224.144 792.541 262.199 806.479 273.422C810.805 276.905 819.203 283.914 823.129 287.865C825.291 290.224 829.122 295.261 830.809 296.96C834.144 302.339 839.454 306.117 843.186 311.346C855.863 329.105 865.235 351.259 870.264 372.402C872.909 383.524 864.269 394.283 856.616 400.899C839.336 413.999 828.506 431.452 830.028 453.758C830.891 466.399 827.665 476.067 819.973 486.374C818.018 489.002 815.953 493.489 813.486 495.31C800.106 449.754 731.199 395.91 685.241 386.789C682.246 386.195 680.122 384.495 676.962 384.777C672.696 384.874 673.432 384.983 669.421 383.274C655.171 377.207 639.866 371.729 624.692 368.682C621.869 368.115 618.203 368.992 615.581 370.035C610.784 366.945 599.04 365.768 591.615 359.715C611.813 342.35 625.32 325.121 607.676 299.26C605.538 300.729 606.198 299.919 605.194 302.327C608.707 315.459 608.6 332.35 597.277 342.34C590.123 348.652 581.01 355.078 571.208 354.473C564.996 354.09 561.555 352.243 556.063 349.504C528.481 339.278 493.437 322.263 473.643 300.369C469.28 299.542 449.529 291.125 445.472 289.006C434.529 276.093 433.659 269.808 435.044 252.967C436.27 253.054 436.255 252.818 437.527 252.233C440.096 256.407 442.323 258.012 446.183 261.031C446.614 262.092 446.769 263.17 447.938 263.397C453.103 264.402 454.071 263.769 459.006 266.021C470.182 261.056 469.552 259.644 476.496 271.378C477.13 272.45 480.92 274.005 482.391 274.41C491.081 276.807 501.382 273.542 507.276 266.8C507.677 266.341 508.049 262.97 508.206 262.205C515.739 273.013 531.606 276.78 544.115 278.518C562.502 281.075 572.222 263.546 584.173 253.461C600.731 239.487 600.081 267.739 606.98 275.033C615.37 284.979 621.761 287.429 634.188 289.196C636.753 288.09 639.443 286.98 641.84 285.655C650.587 280.819 660.333 272.335 670.356 270.571C677.079 269.388 691.601 275.369 696.09 280.41C705.588 291.075 707.395 308.045 720.603 315.627C726.959 319.277 733.614 315.537 740.267 316.955C745.65 318.238 751.009 324.46 756.123 326.679C761.051 329.108 763.288 327.484 766.794 329.906C766.895 330.002 766.996 330.099 767.097 330.195C770.554 330.475 775.434 329.382 778.653 328.093C786.782 324.777 793.239 318.336 796.575 310.215C799.315 303.613 800.975 295.323 798.062 288.477C794.497 280.097 785.874 277.797 777.936 274.702C774.163 268.667 773.224 261.806 767.897 255.021C759.388 244.184 747.03 245.106 735.993 239.425C733.26 238.018 727.726 229.558 724.359 226.272L723.849 225.781Z"/><path fill="#039C9C" d="M588.797 277.908C597.217 281.305 603.046 291.635 607.676 299.26C605.538 300.729 606.198 299.919 605.194 302.327C603.55 294.2 594.246 285.571 588.797 277.908Z"/><path fill="#331713" d="M508.344 305.642C514.732 305.525 518.696 305.608 523.73 310.043C529.258 314.914 527.175 319.786 522.948 324.035C518.047 325.288 514.846 323.769 510.275 322.12C508.959 320.534 507.366 318.831 505.978 317.274C505.797 312.55 504.665 309.044 508.344 305.642Z"/><path fill="#331713" d="M541.174 150.484C546.881 150.058 553.145 147.335 558.009 147.329C570.246 147.314 583.053 145.469 595.002 148.112C597.373 148.636 600.373 148.534 602.845 148.546C600.945 150.497 599.415 150.749 597.07 152.109C587.702 157.543 582.708 160.062 578.474 170.374C563.804 180.885 563.941 164.647 552.725 165.028C547.871 165.192 526.997 174.262 522.904 177.393C508.056 188.75 489.021 204.43 484.801 223.541C482.503 233.946 488.741 238.289 493.121 246.333C496.335 247.97 502.654 250.748 505.45 252.372C506.48 254.884 508.662 259.562 508.206 262.205C508.049 262.97 507.677 266.341 507.276 266.8C501.382 273.542 491.081 276.807 482.391 274.41C480.92 274.005 477.13 272.45 476.496 271.378C469.552 259.644 470.182 261.056 459.006 266.021C454.071 263.769 453.103 264.402 447.938 263.397C446.769 263.17 446.614 262.092 446.183 261.031C442.323 258.012 440.096 256.407 437.527 252.233C436.419 250.079 435.637 250.121 434.901 247.505C433.326 241.91 430.691 236.764 429.396 230.977C427.056 220.519 435.604 210.772 440.025 201.879C442.181 197.541 443.789 194.059 446.493 189.942C449.771 188.342 453.618 186.364 456.966 185.015C461.061 183.366 464.345 182.743 468.376 180.788L466.381 177.633C467.77 177.347 474.853 174.228 477.973 173.362L478.995 173.104C481.851 168.405 495.442 167.779 502.104 163.765C508.313 159.219 534.06 149.498 541.174 150.484Z"/><path fill="#F3480E" d="M478.995 173.104C481.088 174.645 480.643 173.844 481.078 176.023C478.783 184.075 463.187 187.268 456.016 191.302C453.751 203.588 443.182 206.733 440.357 220.577C436.338 240.277 448.168 241.735 446.183 261.031C442.323 258.012 440.096 256.407 437.527 252.233C436.419 250.079 435.637 250.121 434.901 247.505C433.326 241.91 430.691 236.764 429.396 230.977C427.056 220.519 435.604 210.772 440.025 201.879C442.181 197.541 443.789 194.059 446.493 189.942C449.771 188.342 453.618 186.364 456.966 185.015C461.061 183.366 464.345 182.743 468.376 180.788L466.381 177.633C467.77 177.347 474.853 174.228 477.973 173.362L478.995 173.104Z"/><path fill="#FAE9C3" d="M466.381 177.633C467.77 177.347 474.853 174.228 477.973 173.362C475.818 177.417 472.545 179.122 468.376 180.788L466.381 177.633Z"/><path fill="#FAE9C3" d="M502.104 163.765C508.313 159.219 534.06 149.498 541.174 150.484C540.311 151.06 538.06 152.399 538.365 153.576C539.183 156.731 533.668 163.786 531.07 161.743C521.613 154.31 518.423 161.754 507.875 166.1C506.14 165.391 503.82 164.354 502.104 163.765Z"/><path fill="#F3480E" d="M797.784 621.745C810.297 613.809 820.024 620.65 831.457 625.808C837.267 628.43 845.368 627.156 851.663 627.06C843.544 644.557 824.399 690.479 806.38 697.162C804.819 702.204 798.687 701.393 798.43 709.567L797.317 709.861C795.783 709.46 795.581 709.084 794.556 709.805C784.87 716.615 769.67 727.57 758.855 731.586C750.987 734.508 733.499 735.861 724.444 736.808C712.736 738.033 704.067 736.346 692.712 736.573C684.339 736.739 657.942 739.797 650.776 744.351C649.386 745.235 650.409 745.944 647.509 746.531C631.037 745.432 622.118 742.912 606.806 737.049C602.083 735.241 595.708 734.744 590.495 732.787L588.467 731.097C581.247 727.496 546.247 718.553 543.263 712.579C545.586 711.774 544.761 712.336 546.36 710.401C548.568 702.088 529.277 688.95 534.662 677.213C537.781 670.413 537.992 671.461 543.607 667.834C554.562 669.687 555.806 671.779 565.026 674.646C578.16 678.731 591.245 683.955 604.739 685.897C617.237 687.697 627.336 684.288 639.234 684.729C647.297 684.515 655.317 683.488 663.173 681.665C673.308 679.323 682.148 675.791 691.9 672.537C704.113 668.462 726.144 661.325 736.957 654.906C740.81 653.708 746.634 652.404 749.528 649.89C751.27 648.866 759.609 647.119 762.299 646.252C774.663 642.263 782.291 634.302 790.888 625.188C792.101 623.902 795.79 622.662 797.784 621.745Z"/><path fill="#FAE9C3" d="M797.784 621.745C810.297 613.809 820.024 620.65 831.457 625.808C837.267 628.43 845.368 627.156 851.663 627.06C843.544 644.557 824.399 690.479 806.38 697.162C809.07 692.623 810.366 686.304 807.606 681.401C805.645 677.917 802.499 677.434 798.894 676.507C790.673 680.905 787.957 678.403 779.693 678.146C750.107 677.224 741.361 719.454 710.499 717.841C706.488 717.631 702.048 715.64 697.472 715.528C693.525 715.432 687.381 706.143 685.082 703.365C676.167 693.592 666.937 699.131 656.289 698.635C650.436 688.073 652.23 686.835 639.234 684.729C647.297 684.515 655.317 683.488 663.173 681.665C673.308 679.323 682.148 675.791 691.9 672.537C704.113 668.462 726.144 661.325 736.957 654.906C740.81 653.708 746.634 652.404 749.528 649.89C751.27 648.866 759.609 647.119 762.299 646.252C774.663 642.263 782.291 634.302 790.888 625.188C792.101 623.902 795.79 622.662 797.784 621.745Z"/><path fill="#F3480E" d="M797.784 621.745C800.936 623.218 805.174 625.07 808.166 626.709C812.346 636.003 812.788 640.233 808.121 649.458C797.03 657.369 795.878 652.316 785.109 656.045C774.109 659.853 766.195 673.159 752.179 670.689C743.588 669.175 740.47 661.662 736.957 654.906C740.81 653.708 746.634 652.404 749.528 649.89C751.27 648.866 759.609 647.119 762.299 646.252C774.663 642.263 782.291 634.302 790.888 625.188C792.101 623.902 795.79 622.662 797.784 621.745Z"/><path fill="#A99C99" d="M854.827 626.537L860.688 622.7C860.123 629.138 857.885 635.815 856.261 642.176C855.099 646.725 854.048 653.94 852.718 657.916C846.143 677.579 838.039 697.931 827.716 715.973C826.258 718.521 822.866 726.092 821.327 727.936C815.298 735.158 806.65 742.567 799.651 748.999C795.65 752.676 789.138 756.676 784.795 760.108C770.706 771.24 754.415 782.165 736.595 785.935C730.046 787.057 723.063 786.117 716.542 785.79C699.118 784.914 685.195 773.928 667.062 777.281C651.206 780.212 643.385 794.336 626.694 799.01C609.004 803.963 597.284 797.794 580.115 797.396C575.908 797.4 572.821 800.302 569.15 802.316C550.136 812.751 539.543 814.89 518.756 807.661C515.299 806.459 508.158 806.008 506.606 804.746C508.937 797.94 537.038 800.098 543.37 801.301C554.903 797.3 568.974 785.322 580.356 782.529C588.663 780.49 603.196 786.379 611.754 787.011C618.944 787.542 628.277 784.561 635.336 782.524C641.497 780.746 645.921 775.777 650.765 772.524C658.716 767.184 671.112 757.242 680.268 755.558C696.522 752.57 712.088 763.862 728.125 767.086C753.288 772.145 773.235 764.34 791.837 747.633C795.897 743.987 799.035 739.123 802.646 735.541C811.886 726.375 819.515 713.841 826.067 702.583C828.168 698.973 830.152 693.407 832.577 689.259C836.218 683.031 840.7 676.733 843.317 670.093L843.048 669.585C840.961 671.732 838.827 676.615 836.879 679.628C832.566 686.302 828.496 692.916 823.579 699.25C815.77 709.308 804.207 721.773 793.832 728.965C789.579 731.913 779.444 736.059 774.531 738.266C771.597 739.584 766.16 743.514 764.325 744.125C758.015 746.353 751.294 746.867 744.887 748.259C731.681 751.128 720.402 752.049 707.038 752.451C698.598 752.705 688.183 749.634 681.503 750.469C667.367 752.235 654.184 765.631 643.158 773.615C640.209 775.787 628.195 780.884 624.3 781.606C609.153 784.414 596.175 775.487 580.264 778.405C566.488 780.38 558.291 793.249 544.319 796.057C538.611 797.204 531.258 794.669 526.817 795.607C507.547 799.676 490.678 803.386 470.727 800.848C460.558 799.554 452.333 797.622 441.709 798.111C439.286 799.7 437.016 801.569 434.212 801.857L433.792 801.136C437.35 794.068 447.552 787.813 454.812 785.319C473.892 778.764 478.61 789.743 495.411 791.454C505.72 792.504 513.755 783.367 523.193 781.596C533.128 779.732 544.353 785.831 553.202 784.707C567.834 782.838 576.043 765.507 589.465 762.153C600.68 759.351 611.513 764.701 623.736 763.212C642.371 760.942 654.964 747.49 671.53 742.494C682.655 739.139 700.39 741.658 711.48 743.476C713.389 743.827 718.584 742.052 720.914 742.305C745.219 742.787 759.562 739.156 779.113 724.745C785.735 719.864 791.12 717.058 797.317 709.861L798.43 709.567C806.827 705.785 812.603 699.937 818.47 693.022C821.61 689.322 829.299 681.41 831.665 677.741C840.239 664.444 847.703 646.63 853.323 631.8C853.98 630.094 854.484 628.333 854.827 626.537Z"/><path fill="#F3480E" d="M864.973 299.883C881.829 294.138 885.122 299.274 895.947 310.331C896.977 311.382 905.48 315.537 907.266 316.485C912.939 328.903 914.288 337.503 927.382 344.263L932.823 347.102C935.213 349.305 937.903 353.488 939.182 354.346L939.932 354.888C937.534 360.258 938.801 360.575 940.771 365.902C942.894 371.642 946.075 381.398 945.747 387.516C951.72 401.521 955.167 420.536 958.989 435.49C959.898 439.047 960.209 446.311 960.936 450.331C962.215 457.4 963.533 464.533 964.419 471.664C967.605 490.24 961.58 510.747 956.278 528.264C954.928 532.722 953.531 539.628 952.029 543.672C950.747 547.052 947.889 556.089 945.257 557.805C939.678 557.606 940.475 557.406 936.881 552.933C932.08 546.956 930.12 546.3 922.865 546.19C922.889 545.617 933.368 503.788 933.44 503.628C933.397 503.927 933.175 496.959 933.176 496.308C933.325 476.352 930.131 456.511 923.726 437.61C921.249 430.156 917.526 423.295 915.623 415.554C914.351 408.191 914.332 400.564 913.197 393.178C912.563 389.052 911.143 384.859 909.569 380.97C906.149 372.523 903.816 363.208 899.829 355.035C897.859 350.997 894.888 346.462 892.679 342.427C888.368 334.552 884.276 326.255 879.324 318.787C876.953 315.245 874.443 311.798 871.801 308.454C868.907 304.859 866.835 304.615 864.973 299.883Z"/><path fill="#FAE9C3" d="M945.747 387.516C951.72 401.521 955.167 420.536 958.989 435.49C959.898 439.047 960.209 446.311 960.936 450.331C962.215 457.4 963.533 464.533 964.419 471.664C955.457 466.424 953.257 477.094 946.647 466.807C938.027 453.636 939.107 443.642 942.794 429.27C943.403 423.069 932.013 409.613 937.872 404.515C945.196 398.141 943.98 397.35 945.747 387.516Z"/><path fill="#FAE9C3" d="M922.865 546.19C922.889 545.617 933.368 503.788 933.44 503.628C937.137 507.024 939.979 509.91 939.787 515.462C939.446 525.356 938.373 526.604 940.314 536.324C944.66 541.567 945.355 541.919 952.029 543.672C950.747 547.052 947.889 556.089 945.257 557.805C939.678 557.606 940.475 557.406 936.881 552.933C932.08 546.956 930.12 546.3 922.865 546.19Z"/><path fill="#A99C99" d="M725.199 219.975C736.734 220.976 743.733 224.244 754.031 229.318C761.57 233.033 771.763 236.082 778.801 240.438C778.331 240.774 777.943 241.073 777.563 241.512C783.297 247.84 802.842 258.81 809.957 263.989C814.009 266.939 820.78 273.661 824.723 277.344C831.149 283.344 841.576 291.789 846.732 298.504C866.749 324.569 884.051 358.813 882.304 392.471C881.825 401.693 878.652 407.969 871.988 413.554C863.331 420.81 850.077 432.126 850.335 444.511C850.685 461.414 857.026 468.399 841.751 482.943C837.291 487.19 829.2 493.392 822.382 493.639L821.376 492.985C821.255 488.591 831.077 479.543 832.733 472.864C834.118 467.275 834.972 462.464 834.83 456.52C834.354 436.534 837.099 426.066 851.069 410.779C861.808 399.028 874.596 395.031 873.657 377.086C872.823 361.168 869.282 353.218 861.996 339.414C860.263 336.131 857.8 327.843 856.136 324.976C852.167 318.139 844.318 306.303 838.843 301.119C837.794 300.125 836.718 299.16 835.616 298.225L830.809 296.96C829.122 295.261 825.291 290.224 823.129 287.865L823.543 284.988C809.211 264.724 748.885 228.238 725.199 219.975Z"/><path fill="#CEC1C0" d="M823.543 284.988C827.621 289.397 831.972 293.499 835.616 298.225L830.809 296.96C829.122 295.261 825.291 290.224 823.129 287.865L823.543 284.988Z"/><path fill="#F3480E" d="M922.865 546.19C930.12 546.3 932.08 546.956 936.881 552.933C940.475 557.406 939.678 557.606 945.257 557.805C939.418 567.474 936.721 580.073 931.761 589.734C920.082 612.482 894.921 650.993 872.033 663.421C868.796 657.166 870.418 654.03 873.405 647.982C874.132 643.627 876.317 637.307 876.761 634.665C879.72 617.063 881.656 617.322 892.305 603.988C903.476 594.131 919.95 560.666 922.865 546.19Z"/><path fill="#A99C99" d="M857.501 469.711C860.718 450.856 852.216 441.872 866.376 423.743C869.308 419.598 876.598 416.039 879.207 411.965C904.549 372.384 869.63 321.026 844.33 290.267C833.876 277.556 817.553 269.09 806.562 258.795L807.191 259.079C807.894 260.061 809.174 260.822 810.279 261.288C819.471 265.169 831.062 278.088 838.443 282.813L838.752 282.318C836.848 279.783 837.911 278.394 834.686 276.202C826.575 270.689 819.127 263.779 810.611 258.799C808.723 257.695 808.214 257.842 806.44 256.202L806.867 255.979C816.141 260.683 822.358 265.571 830.51 271.971C832.034 273.4 832.545 273.842 834.308 274.952C868.987 302.998 889.213 335.448 896.92 379.924C898.692 385.973 895.397 397.773 895.531 402.255C896.092 421.05 882.924 422.074 876.801 436.479C875.452 439.651 875.353 445.291 874.607 448.974C872.756 458.105 864.74 464.725 857.501 469.711Z"/><path fill="#FAE9C3" d="M873.405 647.982C870.741 642.628 869.51 624.166 870.725 617.579C871.073 615.69 884.17 608.654 886.43 607.074C887.737 606.16 889.74 603.413 890.868 602.931L892.305 603.988C881.656 617.322 879.72 617.063 876.761 634.665C876.317 637.307 874.132 643.627 873.405 647.982Z"/><path fill="#A99C99" d="M915.75 421.989C918.915 425.783 924.192 458.223 925.468 465.129C929.604 487.508 929.523 512.773 923.074 534.659C920.893 542.06 917.527 549.401 914.743 556.609C911.217 565.739 907.961 575.164 902.319 583.254C896.004 592.31 885.733 600.979 876.081 606.362C872.433 608.396 868.533 609.918 864.847 611.869C860.718 614.054 856.658 617.005 852.093 618.177C847.244 619.422 840.609 619.143 835.724 618.247C825.854 616.437 816.059 608.322 805.777 609.944C792.525 612.035 779.276 632.564 766.214 638.869C762.67 640.58 758.618 641.489 754.765 642.184C737.519 645.296 727.196 637.323 711.523 636.468C707.332 636.239 703.331 637.127 699.227 637.873C717.674 626.493 740.193 632.775 760.005 624.783C777.379 617.774 786.187 597.583 808.089 594.312C820.704 592.427 835.318 602.631 850.534 601.989C864.057 601.418 878.007 594.196 887.046 584.251C900.941 568.962 915.759 545.196 918.131 524.217C919.227 514.523 918.152 504.793 917.663 495.09C916.094 500.364 914.498 505.586 912.593 510.75C901.312 537.042 880.23 559.052 850.643 562.147C843.932 562.849 837.066 562.252 830.323 562.419C818.88 562.703 806.9 567.37 796.89 572.803C773.239 585.639 774.205 609.214 759.098 619.549C745.759 628.675 719.613 624.769 703.69 632.453C697.333 635.521 689.604 640.965 684.819 646.228C682.104 649.214 679.708 653.108 676.42 655.453L675.965 655.018C677.212 649.136 681.704 642.159 685.543 637.568C697.001 623.864 714.057 617.761 731.292 615.026C738.024 613.958 746.814 613.476 752.435 609.255C758.052 605.038 770.131 581.365 777.24 573.604C781.442 569.017 787.797 568.766 794.005 562.549C812.004 559.463 816.334 551.887 830.864 546.098L831.346 545.909C834.488 544.658 837.812 544.666 841.152 544.502C844.923 546.781 848.04 549.633 852.019 551.692C858.596 551.173 864.877 550.431 871.024 547.858C902.034 534.878 914.63 490.308 915.031 459.719C915.094 454.86 914.981 449.894 914.567 445.053C914.124 439.892 912.767 433.923 913.416 428.804C913.702 426.546 914.895 424.098 915.75 421.989Z"/><path fill="#A99C99" d="M896.829 360.139C902.018 363.344 903.129 369.438 905.198 374.736C910.536 388.41 912.583 403.717 910.318 418.538C908.475 430.59 898.193 450.044 889.885 459.332C884.767 464.094 880.188 465.502 874.287 473.072C869.067 479.77 865.871 489.873 859.743 494.349C852.337 499.759 837.406 500.084 830.732 505.025C824.714 509.48 822.48 519.154 813.341 522.873C809.133 524.585 802.477 528.743 798.145 529.823C790.049 531.841 785.072 528.585 777.498 534.483C768.704 541.331 762.088 551.38 760.272 562.341C759.781 564.295 759.693 565.595 758.255 566.955L757.183 566.902C755.458 563.761 756.667 556.878 757.544 553.455C760.553 541.723 762.853 538.071 770.047 529.974C785.883 512.15 796.557 525.546 811.92 515.37C816.494 512.339 818.409 501.905 822.843 498.053C830.12 491.732 840.218 489.874 848.395 484.87C851.994 482.667 854.481 475.509 856.833 473.889C862.057 470.293 869.189 465.386 874.463 462.1C878.063 453.527 878.134 440.762 880.553 436.181C881.643 434.118 892.511 424.264 895.898 418.872C908.225 399.246 900.731 380.413 896.829 360.139Z"/><path fill="#A99C99" d="M908.587 433.764C909.506 434.264 909.952 434.805 910.592 435.623C911.758 441.533 907.746 453.751 904.94 459.278C902.416 464.249 898.936 468.703 896.503 473.739C894.648 477.579 893.666 481.918 892.458 486C881.356 523.512 858.144 503.749 843.287 516.324C838.561 520.324 835.929 526.336 832.546 531.418C827.371 539.192 815.331 551.565 806.717 555.32C793.437 561.109 784.784 551.947 766.147 562.094C765.49 562.185 765.307 561.984 764.719 561.713C764.55 561.228 764.455 561.026 764.364 560.553C763.784 557.542 764.898 554.518 766.609 552.096C776.249 538.451 779.303 534.234 796.404 533.81C800.307 533.713 804.324 533.747 808.171 533.029C823.855 530.099 821.552 518.935 831.547 510.548C840.914 502.688 853.132 503.509 862.941 496.876C869.842 492.209 871.376 484.601 876.276 478.361C880.128 473.455 885.113 469.544 889.489 465.129C893.76 460.821 897.625 455.498 900.959 450.422C904.245 445.419 904.818 439.005 908.29 434.159C908.386 434.025 908.488 433.896 908.587 433.764Z"/><path fill="#A99C99" d="M819.351 733.248C820.051 733.953 820.008 734.147 820.27 735.064C818.894 738.295 815.838 740.374 813.645 743.035C810.329 747.057 807.838 751.748 804.497 755.786C800.096 761.105 794.087 765.83 788.95 770.454C757.438 798.816 736.081 809.358 693.567 799.473C684.684 797.408 673.24 794.448 664.167 796.012C654.119 797.744 646.889 806.621 637.921 810.933C627.738 815.829 614.075 817.687 603.434 813.036C598.946 811.074 595.312 808.002 590.562 806.381L589.756 806.113C588.971 805.409 589.122 805.521 588.941 804.593C595.228 801.073 614.622 808.238 627.281 803.901C639.298 799.783 647.112 790.558 657.478 784.042C670.071 776.127 680.434 782.152 692.562 787.128C698.087 789.395 704.151 791.311 709.991 792.569C730.579 797.004 758.741 785.261 775.472 773.901C783.926 768.161 791.984 760.843 799.271 753.676C805.59 747.462 811.376 738.289 818.792 733.596L819.351 733.248Z"/><path fill="#A99C99" d="M911.067 446.295C911.226 446.423 911.401 446.533 911.543 446.679C912.652 447.809 912.92 449.604 912.948 451.129C913.016 454.859 911.874 458.776 911.633 462.539C910.458 480.863 908.981 495.456 899.707 511.832C896.975 516.657 894.08 521.309 890.253 525.358C884.539 531.402 871.66 542.008 864.049 544.681C861.247 545.666 858.208 545.742 855.301 545.246C850.064 544.352 845.262 541.904 839.867 542.148L839.117 542.188C836.918 542.277 833.968 542.798 832.279 541.283C832.335 541.065 832.445 540.57 832.557 540.332C833.758 537.792 837.78 534.324 839.645 531.866C856.131 510.136 859.393 521.491 879.861 512.361C895.232 505.505 895.849 487.634 900.695 473.817C902.033 470 905.497 467.359 906.929 463.591C909.013 458.108 908.917 451.959 911.067 446.295Z"/><path fill="#A99C99" d="M912.234 516.252C913.077 516.737 913.298 517.205 913.735 518.057C914.304 530.528 898.332 552.106 890.362 561.477C879.237 574.557 859.682 584.291 842.512 584.3C835.528 584.303 828.823 582.368 821.776 583.008C801.275 584.868 791.135 590.022 777.731 606.006L776.6 606.046L775.757 605.106C775.427 602.748 776.011 600.597 776.979 598.453C779.976 591.812 786.493 584.932 792.238 580.537C820.951 558.567 841.868 575.488 866.292 565.752C875.769 561.975 897.298 542.743 903.185 534.411C907.067 528.917 909.576 522.396 912.234 516.252Z"/><path fill="#A99C99" d="M489.223 806.974C508.785 806.138 519.841 816.121 535.744 816.143C549.028 816.162 560.139 809.01 572.937 807.009C576.835 806.4 581.017 806.771 584.952 806.927C591.646 810.856 598.239 815.543 605.68 817.944C614.846 820.901 627.301 820.087 635.873 815.595C638.923 813.997 641.701 811.448 644.856 810.129C646.36 809.5 647.129 809.557 648.587 810.11L648.548 811.387C646.927 813.908 645.077 815.665 642.829 817.624C635.169 824.587 628.182 828.348 618.424 831.605C609.804 829.745 602.122 828.386 593.981 824.612C590.43 822.966 586.769 819.891 583.135 818.764C578.849 817.436 572.188 817.73 567.626 817.665C550.112 817.414 539.958 831.446 518.658 826.9C507.337 824.483 495.51 816.83 489.223 806.974Z"/><path fill="#A99C99" d="M864.073 619.133C864.2 619.251 864.338 619.356 864.452 619.486C865.235 620.373 865.424 621.297 865.59 622.438C866.136 626.185 865.619 630.166 865.768 633.953C866.037 640.822 867.244 647.23 866.761 654.194C865.264 675.788 849.435 715.092 836.717 732.282C825.945 746.844 812.618 759.096 799.031 770.906L797.257 770.267L796.874 768.964C798.562 763.409 805.304 759.836 808.844 755.393C813.319 749.775 815.719 742.861 821.267 738.094C825.508 722.91 833.582 712.431 840.232 698.647C846.485 685.687 851.391 671.498 856.225 657.92C860.682 645.402 857.872 630.984 864.073 619.133Z"/><path fill="#A99C99" d="M807.386 722.356C808.299 722.524 808.348 722.536 808.983 723.211C808.924 723.819 808.869 724.315 808.611 724.878C807.376 727.569 804.336 730.408 802.372 732.634C792.429 743.907 782.238 753.93 768.253 760.093C752.253 767.144 738.511 767.08 722.399 760.919C719.001 759.409 715.896 757.59 712.722 755.669C722.947 756.265 730.203 753.795 740.029 752.451C745.591 751.69 751.322 752.138 756.847 751.155C764.758 749.747 774.406 746.16 781.092 741.724C784.636 739.372 787.836 736.507 791.323 734.066C796.783 730.243 802.376 726.783 807.386 722.356Z"/><path fill="#A99C99" d="M912.946 532.423L913.512 532.991C913.661 533.755 913.654 534.278 913.428 535.03C906.723 557.252 889.221 580.62 868.949 592.119C850.718 602.46 838.225 595.99 819.718 590.879C818.808 590.519 817.828 590.174 816.978 589.689C815.771 589.001 815.331 588.483 814.9 587.211C816.933 586.127 821.281 587.41 823.59 587.639C831.529 588.428 839.462 588.112 847.387 587.322C853.868 586.677 860.138 585.597 866.123 582.9C877.496 577.775 893.167 562.952 900.372 552.544C904.939 545.947 907.757 538.748 912.946 532.423Z"/><path fill="#A99C99" d="M779.745 563.706C781.481 563.406 783.105 563.437 784.862 563.486L785.271 563.989C782.517 566.239 778.83 566.883 775.762 568.641C768.92 572.562 764.75 580.957 760.809 587.416C757.639 592.611 752.123 601.63 747.621 605.488C739.427 612.51 716.017 615.615 704.916 618.332C702.759 619.497 700.303 620.094 697.967 620.815C700.43 618.652 702.926 616.387 705.825 614.825C717.348 608.62 732.479 609.368 742.071 599.673C748.296 593.381 750.085 584.33 755.628 577.535C761.57 570.252 770.341 564.661 779.745 563.706Z"/><path fill="#D8CCC8" d="M80.7754 409.75C75.4401 399.489 64.7165 396.883 60.5851 383.171C58.6025 376.591 52.6789 360.436 55.775 354.032L56.5169 354.127C58.3603 357.599 57.5439 361.012 58.6456 363.876C63.2212 375.207 71.723 386.847 82.5889 392.967C113.76 411.659 134.056 373.752 166.135 381.95C181.11 385.777 185.094 388.24 196.243 398.955C202.947 404.796 212.701 412.19 221.236 414.058C248.012 419.917 273.17 393.629 295.617 417.787C301.803 424.445 307.825 434.748 316.054 438.372C331.055 444.978 347.012 445.592 363.115 444.515C367.654 444.24 376.146 447.398 380.151 449.688C423.567 480.564 426.758 541.692 454.184 584.292C457.074 588.78 460.031 591.764 462.868 596.177C473.555 611.453 483.62 629.643 499.844 639.649C502.793 641.457 506.765 642.258 507.298 645.774C510.446 648.954 538.515 665.42 543.607 667.834C537.992 671.461 537.781 670.413 534.662 677.213C529.277 688.95 548.568 702.088 546.36 710.401C544.761 712.336 545.586 711.774 543.263 712.579C546.247 718.553 581.247 727.496 588.467 731.097L590.495 732.787C588.055 735.253 585.707 736.291 583.201 738.302C568.9 749.779 548.604 750.421 532.518 742.434C523.612 738.011 516.64 730.283 505.622 731.401C499.954 731.875 496.595 737.332 492.388 739.629C485.008 743.658 469.135 749.244 461.037 748.628C448.851 747.562 432.34 742.871 423.819 733.748C413.147 722.324 409.579 712.006 392.767 709.486C374.768 706.787 364.201 718.292 346.371 717.92C319.427 717.359 319.169 700.673 303.82 684.395C287.041 667.006 269.446 674.287 249.561 673.651C230.362 673.037 208.179 662.551 199.486 644.944C196.141 638.169 193.67 630.165 190.333 623.23C188.098 618.585 188.065 614.136 184.017 610.312C174.733 601.54 163.404 600.467 153.1 594.696C150.19 593.065 146.329 587.768 143.734 584.975C141.867 572.616 134.346 559.949 138.498 546.609C139.128 544.584 138.985 544.218 140.508 543.34C140.787 543.656 141.067 543.972 141.346 544.288C140.924 551.616 140.316 554.368 142.825 561.204C148.057 575.458 161.573 585.134 176.818 584.665C183.378 584.463 189.725 582.193 196.357 584.271C203.664 586.561 211.517 596.453 219.491 596.525C228.245 596.604 233.214 590.246 243.321 592.718C251.769 594.785 255.822 603.08 262.562 605.427C274.354 609.535 285.03 599.726 294.34 595.308C305.81 589.864 312.009 596.044 321.871 600.298C324.503 601.433 332.093 603.025 334.781 601.421C336.073 600.649 336.056 599.956 336.402 598.688C333.676 596.245 333.277 589.53 331.036 586.448C327.476 581.552 319.393 568.846 315.422 565.349C298.624 550.555 274.741 564.034 255.737 557.211C250.636 554.835 242.074 550.682 237.849 547.246C219.92 532.668 232.196 509.868 214.556 494.318C201.134 482.486 187.914 492.834 177.662 485.935C163.51 476.411 158.767 450.581 141.788 442.038C133.399 436.38 112.451 441.264 105.311 437.636C91.0686 430.401 100.529 416.617 80.7754 409.75Z"/><path fill="#FAE9C3" d="M542.828 712.481C534.741 710.971 537.702 707.675 533.867 705.743C520.68 699.101 513.345 686.589 506.678 673.586C502.787 665.998 503.866 654.341 507.298 645.774C510.446 648.954 538.515 665.42 543.607 667.834C537.992 671.461 537.781 670.413 534.662 677.213C529.277 688.95 548.568 702.088 546.36 710.401C544.761 712.336 545.586 711.774 543.263 712.579L542.828 712.481Z"/><path fill="#A99C99" d="M542.828 712.481L543.263 712.579C546.247 718.553 581.247 727.496 588.467 731.097C566.766 745.836 544.806 744.483 522.336 732.064C520.279 730.927 519.13 729.747 518.606 727.471C518.72 726.907 518.834 726.344 518.947 725.78C527.114 722.359 536.378 719.758 542.476 712.917C542.593 712.771 542.711 712.626 542.828 712.481Z"/><path fill="#A99C99" d="M150.067 579.684C154.999 581.211 158.962 585.397 163.831 587.294C172.845 590.805 182.19 592.265 190.71 597.16C203.352 604.425 205.818 615.044 212.299 627.043C216.093 634.068 223.425 643.004 230.062 647.535C238.632 653.387 250.777 655.458 260.915 653.645C266.64 652.621 272.191 650.699 277.922 649.693C293.467 646.962 303.333 655.888 315.36 664.254C330.286 674.636 347.922 681.259 365.591 674.12C375.236 670.222 379.421 667.207 390.057 665.332C392.351 666.286 394.604 667.38 396.864 668.417C400.419 673.982 406.371 678.401 411.865 681.911C442.54 701.508 466.611 708.918 503.081 702.579C507.345 701.838 511.194 699.771 515.363 698.952C516.706 698.689 517.37 698.51 518.49 699.267C518.412 699.465 518.345 699.667 518.256 699.861C517.186 702.199 512.97 704.104 510.621 704.94C506.295 706.48 501.453 706.831 496.932 707.637C492.105 708.498 487.072 709.723 482.189 710.066C468.979 710.994 454.643 706.555 442.853 701.075C446.526 704.237 449.946 706.944 454.259 709.2C467.635 716.198 496.617 714.757 510.758 710.15C514.965 708.78 518.6 704.849 522.072 703.919C523.028 703.663 522.92 703.802 523.714 704.229C523.853 705.831 523.429 706.835 522.453 708.12C515.589 717.159 487.577 718.304 476.303 720.158C488.404 722.988 503.532 720.956 514.926 716.371C518.148 715.075 520.998 713.151 524.126 711.694C525.461 711.071 526.362 710.902 527.72 711.407L527.804 712.601C525.654 716.863 511.505 721.212 506.512 722.957C486.52 729.944 455.221 724.42 436.468 715.466C427.46 710.359 425.15 700.674 418.032 693.864C413.347 689.381 407.551 686.903 401.438 685.006C383.17 679.337 375.195 685.578 358.493 691.278C354.658 692.587 350.424 693.948 346.33 693.985C335.957 694.077 334.01 686.903 327.82 680.905L327.214 681.15C327.119 682.161 327.159 682.975 327.392 683.963C328.471 688.537 331.686 693.842 335.866 696.249C347.473 702.932 363.477 691.352 374.727 688.801C380.176 687.565 385.575 687.913 391.019 688.96C405.257 691.7 414.98 700.972 424.681 711.068C428.333 714.869 431.927 718.867 436.438 721.677C451.547 731.088 473.278 734.108 490.553 730.56C492.452 730.17 493.362 730.651 494.858 731.648L494.865 732.639C492.686 734.566 475.104 740.873 471.624 741.711C451.711 746.508 438.064 742.5 426.277 725.057C420.798 716.951 417.024 709.741 408.343 704.395C404.412 701.975 399.974 700.786 395.413 700.294C378.458 698.467 371.257 707.768 356.34 711.146C345.415 713.62 337.22 711.341 327.883 705.41C322.328 694.761 313.324 684.504 309.698 673.085C295.707 661.023 286.492 658.571 268.83 664.111C263.864 665.669 259.085 667.338 253.819 667.518C245.735 667.795 238.522 664.766 231.342 661.417C218.038 655.212 205.319 645.884 200.97 631.053C199.164 624.893 198.395 618.785 195.751 612.839C194.816 610.735 193.662 608.341 191.841 606.867C181.021 598.109 162.071 597.169 152.833 588.101C150.119 585.436 150.086 583.245 150.067 579.684Z"/><path fill="#A99C99" d="M148.269 411.614C182.217 407.655 184.063 445.841 211.768 454.552C223.882 458.361 237.194 447.151 248.412 443.426C253.963 441.583 259.555 440.997 265.389 441.143C286.347 441.667 289.77 455.196 303.813 466.384C307.529 469.344 311.276 470.519 315.386 472.635C317.102 473.518 318.548 474.968 320.388 475.6C327.856 478.164 347.581 464.114 362.433 467.142C372.802 469.256 377.777 475.651 383.673 483.718C385.81 486.643 388.348 489.692 389.971 492.934C394.281 501.541 397.292 511.68 403.256 519.356C407.983 525.44 419.298 530.73 422.708 536.232C425.906 541.394 427.293 548.65 429.658 554.324C431.117 557.824 433.565 561.288 434.669 564.857C434.915 565.652 434.522 566.587 434.339 567.389C434.182 567.413 434.027 567.458 433.868 567.462C427.069 567.647 408.621 553.896 402.98 549.42C394.231 539.602 381.631 521.21 380.851 507.656C380.814 507.006 380.783 506.363 380.729 505.714C380.2 499.437 376.202 494.971 371.456 491.063C358.398 480.312 340.591 488.427 326.065 489.808C306.219 491.695 294.984 477.083 281.112 465.88C261.269 449.855 239.631 462.653 218.288 464.708C200.326 466.438 187.43 462.765 176.007 447.804C172.522 443.239 169.544 437.897 165.013 434.277C154.169 425.614 138.038 429.402 125.528 430.775C118.003 431.6 110.16 430.483 104.152 425.556C101.175 423.114 96.3798 417.402 96.0272 413.642C100.972 412.611 107.529 420.561 113.288 420.613C125.252 420.72 136.556 413.782 148.269 411.614Z"/><path fill="#A99C99" d="M150.768 437.484C150.883 437.485 150.998 437.488 151.113 437.487C161.465 437.389 167.498 446.871 174.071 453.265C178.534 457.607 184.349 462.485 189.991 465.147C199.656 469.708 213.18 470.616 223.752 471.619C235.528 480.273 242.829 487.66 244.541 502.749C245.119 507.84 245.398 513.114 246.755 518.072C248.422 524.167 251.502 527.239 256.724 530.619C275.102 542.515 291.088 533.889 308.232 541.034C313.262 543.13 329.234 550.757 332.884 553.621C338.002 557.638 343.541 563.663 346.906 569.238C350.178 574.658 351.844 585.373 357.318 588.482L358.105 588.203C358.098 587.952 358.101 587.46 358.045 587.183C357.613 585.053 355.77 582.522 354.873 580.482C350.253 569.964 345.425 555.999 335.857 549.009C330.057 544.773 322.756 542.769 316.676 538.915L316.765 538.013C318.834 536.772 321.572 537.154 323.88 537.444C329.073 538.098 333.799 539.574 338.645 541.477C365.924 552.188 355.147 574.173 371.394 587.957C379.548 594.876 392.393 592.801 402.131 595.808C413.297 599.257 437.012 618.66 444.134 627.815C452.979 637.755 462.858 642.357 474.551 648.146C478.117 649.912 481.505 652.022 485.07 653.787C488.17 655.322 492.53 656.454 495.028 658.815L494.783 660.444C493.773 661.77 492.987 662.378 491.304 662.665C478.047 664.919 442.777 642.981 432.588 633.852C424.112 626.26 417.856 616.413 408.282 609.945C404.224 607.203 398.343 605.183 393.703 603.62C391.079 602.736 363.424 595.385 362.148 595.537C359.526 595.851 356.645 598.203 353.69 598.643C350.749 599.08 347.416 598.601 345.316 596.314C342.795 593.567 341.596 588.771 340.185 585.356C335.611 574.287 326.978 563.101 316.53 557.109C295.231 544.894 263.109 558.353 243.515 543.319C228.904 532.109 235.91 517.232 234.065 503.561C232.53 492.188 224.091 483.06 212.504 481.8C207.277 481.232 201.999 482.073 196.768 481.134C191.274 480.148 186.305 477.942 181.825 474.614C171.2 466.721 172.015 457.132 164.352 448.682C161.487 445.524 156.626 444.912 153.362 442.217C151.699 440.844 151.044 439.599 150.768 437.484Z"/><path fill="#A99C99" d="M153.463 391.972C161.679 391.418 178.716 399.022 185.032 404.1C189.239 407.483 192.627 411.853 196.783 415.329C206.181 423.188 222.401 425.41 234.246 424.048C241.807 423.178 249.211 421.143 256.808 420.495C282.527 418.3 288.336 425.471 306.669 440.93C314.413 447.46 327.117 455.627 337.647 454.723C343.398 454.23 349.005 452.504 354.807 452.052C362.365 451.464 372.99 452.1 378.999 457.321C382.344 460.228 385.129 464.451 388.016 467.826C401.038 483.05 410.876 495.867 416.414 515.473C417.375 518.876 418.942 522.792 419.048 526.288C419.078 527.284 419.028 527.256 418.363 527.98C418.157 527.942 417.949 527.914 417.745 527.866C409.751 525.996 397.399 498.685 393.586 491.539C390.822 486.359 387.712 481.316 384.766 476.234C363.052 444.204 338.251 475.66 309.784 465.73C298.915 461.939 295.721 445.204 281.806 439.185C267.361 432.937 252.081 438.804 238.463 443.723C193.124 460.099 200.358 426.345 168.756 411.788C152.661 404.374 141.138 409.738 126.159 415.755C113.653 420.779 104.236 413.949 92.9675 409.404C91.213 408.696 89.7143 407.513 89.0903 405.656L89.6105 404.642C94.6162 404.092 103.06 406.981 110.456 405.685C121.624 403.728 129.49 398.688 139.786 394.626C142.49 393.558 148.525 393.358 152.71 392.187L153.463 391.972Z"/><path fill="#A99C99" d="M247.242 462.792C247.332 462.777 247.421 462.756 247.512 462.748C268.332 460.865 278.935 470.166 294.005 482.553C306.564 492.876 318.939 497.626 335.428 495.773C339.939 495.266 344.343 493.91 348.865 493.501C358.757 492.606 365.389 497.239 372.65 503.203C376.752 516.648 383.343 536.282 392.921 546.79C398.545 552.961 405.28 557.446 412.184 562.018C417.317 565.417 422.221 569.143 427.639 572.095C431.152 574.009 439.565 577.297 441.759 580.322C445.677 585.724 451.326 589.77 455.261 595.332C460.584 602.854 463.291 611.618 469.237 618.852C472.443 622.752 487.812 636.07 488.201 638.464C488.071 638.507 487.946 638.578 487.809 638.593C483.83 639.026 480.032 635.847 477.125 633.618C471.442 629.318 457.665 615.192 452.714 609.504C446.538 602.406 441.429 594.552 433.297 589.446C430.271 587.546 426.955 585.606 423.592 584.365C412.302 580.201 388.71 577.893 381.155 568.914C374.082 560.51 375.269 538.23 361.232 522.148C357.529 517.905 352.865 515.523 347.659 513.574C323.497 504.528 312.293 516.572 290.772 515.076C265.517 513.32 268.272 491.554 256.789 478.476C250.39 471.188 241.094 468.19 231.723 467.523C237.19 464.102 240.75 463.215 247.242 462.792Z"/><path fill="#A99C99" d="M229.73 597.403C235.084 597.689 239.656 597.908 244.671 599.924C245.465 601.015 246.205 602.141 246.999 603.231C251.348 609.2 257.275 611.75 264.376 612.865C268.708 611.179 273.375 610.682 277.8 609.221C299.255 602.133 303.325 603.578 320.795 617.906C324.735 621.138 328.648 624.612 333.694 625.898C347.203 629.343 355.336 626.569 368.327 625.827C375.983 625.389 384.816 626.547 392.228 628.627C404.868 632.174 412.465 640.23 422.708 647.488C432.554 654.465 443.381 661.423 454.409 666.345C465.608 671.343 478.872 673.75 490.975 675.333C495.156 675.88 499.969 675.632 503.942 676.997C505.21 677.433 505.378 677.529 505.97 678.701C505.662 679.182 505.408 679.588 504.935 679.928C500.681 682.989 492.834 682.665 487.924 682.09C479.685 681.17 470.698 680.689 462.793 678.071C434.465 668.69 411.579 645.517 379.981 647.692C370.775 648.326 362.497 652.951 353.458 654.591C322.696 660.174 328.102 638.323 312.769 627.904C304.625 622.37 291.36 621.831 282.004 623.695C277.204 624.651 272.547 626.245 267.715 627.078C252.448 629.709 237.499 623.842 226.016 613.908C221.501 610.002 217.548 605.37 212.611 601.98L211.986 601.559C219.18 601.391 223.212 600.897 229.73 597.403Z"/><path fill="#A99C99" d="M186.484 586.768C207.348 588.815 210.997 606.126 224.053 618.879C226.904 621.663 230.07 623.269 233.357 625.407C237.292 627.967 241.179 630.326 245.703 631.718C265.509 637.81 279.93 625.846 297.515 628.954C322.663 633.4 320.336 655.511 338.151 659.958C350.864 663.131 374.085 650.835 391.577 652.494C412.267 654.455 426.993 665.671 444.867 674.584C454.801 679.517 465.376 683.036 476.285 685.038C483.015 686.27 489.877 686.617 496.697 686.071C499.792 685.805 505.244 684.462 507.94 685.66L507.984 686.651C500.959 692.338 473.351 689.619 463.856 688.687C459.216 688.232 454.015 687.003 449.379 687.556L449.037 688.412L449.748 689.655C454.938 692.427 463.582 693.04 469.504 693.909C478.68 695.048 492.541 695.784 501.545 694.138C504.84 693.536 507.852 692.046 511.186 691.5C512.521 692.053 512.973 692.072 513.765 693.322L513.239 694.753C511.344 696.626 509.167 697.822 506.614 698.534C499.2 700.602 490.959 699.09 483.347 699.357C477.465 699.563 471.232 700.948 465.384 700.524C450.159 699.421 427.838 684.836 415.834 675.682C410.716 671.779 406.43 666.78 400.749 663.641C381.736 653.136 372.23 667.714 355.868 672.342C342.066 676.245 319.118 657.034 307.501 650.469C291.538 641.449 285.528 640.63 267.837 645.532C254.722 649.166 245.644 650.101 233.415 643.069C215.906 633.001 213.703 614.632 201.289 600.544C197.27 595.984 190.85 593.232 186.055 589.432C185.474 588.972 185.524 588.56 185.336 587.865L186.484 586.768Z"/><path fill="#A99C99" d="M231.985 471.009C234.877 470.659 237.817 470.794 240.725 470.82C259.233 481.181 257.864 500.002 272.217 512.956C283.423 523.071 301.802 518.377 315.357 517.826C323.448 517.496 331.475 518.758 339.308 520.692C379.023 530.498 363.568 563.772 381.401 577.172C389.083 582.945 408.136 581.606 420.041 587.415C432.796 593.639 443.28 606.919 453.629 616.455C461.177 623.409 469.284 629.942 477.045 636.678C478.828 638.225 480.619 640.09 482.637 641.315C486.568 643.701 491.644 644.964 494.927 648.275C496.031 649.388 497.027 651.066 496.934 652.685C496.872 653.758 496.346 653.905 495.611 654.616C485.258 651.469 470.582 642.901 461.786 636.325C456.63 632.471 451.967 627.923 446.921 623.919C440.327 618.687 433.589 613.652 427.113 608.267C422.275 604.244 418.315 599.159 412.929 595.85C402.184 589.249 389.375 594.599 378.372 588.269C375.725 586.746 372.142 584.492 370.342 581.995C366.786 577.064 365.481 569.245 363.172 563.55C361.063 558.349 357.564 553.427 356.175 548.066C344.756 537.096 324.772 531.709 309.183 532.107C296.926 532.42 285.846 534.773 273.459 532.776C263.25 531.13 256.809 528.014 250.776 519.606C249.18 508.384 250.818 491.969 243.122 482.776C239.724 478.718 235.638 475.949 231.896 472.358L231.985 471.009Z"/><path fill="#A99C99" d="M295.844 599.232C310.704 597.921 323.366 608.635 337.931 603.249C341.177 605.226 344.543 606.955 347.915 608.705C357.288 607.276 366.766 604.973 376.304 605.607C388.25 606.402 402.176 613.977 411.067 621.803C416.833 626.878 421.873 632.747 427.66 637.793C437.077 646.004 448.16 654.027 459.744 658.708C466.254 661.363 473.045 663.267 479.987 664.381C485.256 665.24 490.856 665.71 495.982 667.219C497.462 667.654 498.479 668.181 499.489 669.344L498.742 670.806C498.629 670.825 498.516 670.839 498.404 670.861C486.721 673.131 448.591 659.825 438.633 653.377C433.713 650.192 429.421 645.556 425.054 641.643C417.319 634.711 407.396 629.169 397.593 625.704C385.289 621.354 372.893 621.039 360.098 622.793C354.028 623.624 347.888 624.809 341.785 623.593C330.764 621.398 324.624 612.408 314.774 607.984C307.487 604.711 303.076 605.407 295.949 603.883C294.508 603.575 294.135 603.401 293.343 602.198C293.92 600.656 294.605 600.279 295.844 599.232Z"/><path fill="#D8CCC8" d="M825.708 56.2745L826.44 56.4305C831.749 57.5374 837.079 57.9643 842.409 58.7054C856.48 60.662 868.209 61.8996 880.819 53.7482C886.321 50.1921 889.072 45.7036 894.842 42.5198C905.823 36.4607 919.477 44.0841 930.227 38.7714C944.652 31.643 949.174 15.7318 969.005 17.9438C969.549 18.0045 970.001 18.2755 970.478 18.5339C970.243 21.6886 966.311 20.7201 963.959 21.9892C948.189 30.4977 946.325 53.0696 934.862 65.1289C929.792 70.4623 915.526 71.1599 910.439 77.9417C897.058 91.7277 904.032 108.257 884.306 114.64C881.289 115.617 876.849 115.635 873.528 116.342C871.378 118.152 866.172 122.637 865.055 125C866.2 126.346 867.406 126.045 869.262 126.156C871.38 126.284 872.553 127.398 874.299 128.456C885.588 132.981 901.81 133.247 913.691 131.464C923.437 130.001 929.913 120.398 935.864 113.833C936.58 113.043 937.063 113.456 937.763 113.796C938.199 116.13 937.395 118.272 935.965 120.078C929.055 128.809 912.648 148.211 901.9 149.804C892.553 151.19 886.419 149.757 876.772 155.4C872.672 157.798 867.385 161.807 863.323 163.287C849.527 183.955 837.015 180.676 815.783 177.939C800.705 175.996 779.968 183.984 768.37 194.102C765.122 192.091 764.455 191.769 760.818 190.615L758.261 189.06C755.116 188.276 752.252 187.326 749.17 186.327L746.337 185.31C738.679 181.459 738.362 178.209 728.538 174.751L724.139 172.836C721.748 171.94 718.968 171.323 716.47 170.686L712.092 170.177L703.832 166.491L701.801 166.029C700.724 165.975 697.576 165.222 696.033 165.023C689.133 164.135 680.876 164.868 675.159 160.707L670.637 159.457L667.174 158.215L667.564 157.647C670.147 153.833 671.005 149.898 673.341 147.034C679.459 139.535 694.54 135.261 700.74 128.487C713.248 114.822 721.423 91.4324 741.803 86.8938C746.391 85.8721 760.501 85.3136 766.325 84.7654C773.145 84.1237 782.492 85.78 789.843 82.4523C807.751 74.3447 804.36 63.6124 825.708 56.2745Z"/><path fill="#A99C99" d="M783.893 100.672C773.822 96.7202 764.647 94.9425 754.242 99.3865C750.975 100.782 747.956 102.834 744.824 104.492C739.872 106.762 738.408 105.41 734.468 110.165L734.351 111.274C736.612 112.256 748.514 104.047 754.398 103.13C775.834 99.7912 795.971 113.03 813.446 93.6637C817.103 89.6323 821.426 78.982 827.662 77.1732C841.233 76.9378 850.872 81.6772 864.835 76.5539C881.956 70.2718 883.557 56.6073 896.4 46.6159C905.662 39.6936 919.84 46.9203 930.029 42.4076C941.962 37.122 939.886 30.0764 953.676 25.2588C950.383 30.139 946.365 34.6501 943.466 39.5874C940.422 44.7723 940.722 55.4902 935.796 59.5225C922.559 70.3586 912.822 67.2667 899.838 81.4665C891.225 124 865.933 95.5339 860.092 118.972C858.043 120.123 844.051 115.709 836.712 117.351C824.086 120.177 822.153 127.986 811.344 132.76C805.974 135.132 797.971 129.78 792.115 131.705L793.958 131.295L794.156 133.735C809.138 138.613 817.859 136.885 828.124 125.033C833.347 119.002 851.292 118.499 857.363 121.712L857.752 122.764C854.417 127.629 844.023 127.762 839.426 130.219C831.304 134.691 827.661 142.994 817.748 144.545C794.642 148.16 777.965 128.749 754.256 132.543C739.509 134.903 724.379 142.371 710.377 147.668C703.698 150.194 693.342 162.052 685.391 162.676L684.863 162.024C685.44 157.118 694.475 150.023 698.461 146.719C704.903 141.379 713.086 137.309 720.262 132.938C730.312 126.817 739.959 119.094 751.634 116.351C759.65 114.468 768.85 114.615 777.036 115.229C782.66 115.651 788.641 118.061 794.164 119.213C809.084 122.118 820.091 121.194 832.052 111.486C839.355 105.559 844.677 97.5418 852.037 93.419C862.017 87.8281 875.288 93.3377 885.54 85.6571C895.358 78.3009 894.48 65.4608 905.102 59.1262C915.288 53.0512 931.192 56.4475 937.889 46.3711L937.557 45.7561C935.569 46.1405 935.717 46.1748 934.056 46.7882C923.386 50.7291 915.367 48.0797 904.674 55.0209C892.198 63.1197 894.565 76.3433 879.565 83.4073C869.256 88.262 857.629 83.1398 848.218 88.9772C837.753 95.4684 833.203 108.886 821.925 113.33C805.059 119.977 787.183 111.756 770.693 109.63C765.24 108.926 749.324 112.683 743.678 114.621C741.535 115.356 731.16 122.205 728.54 123.756C721.498 127.922 714.019 132.288 707.156 136.82C702.512 139.887 696.636 142.055 691.942 144.66C687.423 147.167 678.017 156.371 675.159 160.707L670.637 159.457C678.038 143.572 688.29 143.082 700.159 132.929C706.694 127.338 711.643 118.926 716.828 112.411C723.673 103.811 734.767 95.4715 744.992 91.546C754.895 87.7439 760.681 91.8905 770.379 93.1637C776.919 94.0224 785.546 93.7068 791.972 92.2665L792.466 91.8891C804.206 82.7326 803.558 70.0177 819.653 64.5975C838.9 58.1154 855.85 70.2608 873.897 61.0113C875.534 60.1192 878.968 57.7225 880.53 57.9336C882.237 66.5506 863.091 73.2926 856.246 74.4363C842.637 76.7102 827.426 64.7183 817.14 77.924C810.903 86.7903 809.965 97.0061 796.029 99.3767C791.698 100.113 788.796 99.4451 783.893 100.672Z"/><path fill="#A99C99" d="M701.801 166.029C710.435 146.742 729.876 142.45 748.61 139.434C761.355 136.998 773.928 137.427 785.95 142.594C798.969 148.261 810.97 151.788 824.424 144.637C829.831 141.762 833.356 138.281 838.213 134.637C853.091 123.474 872.451 132.164 888.949 133.302C891.792 133.498 898.014 134.034 900.009 136.023C898.818 137.597 895.92 137.925 893.872 138.248C876.294 141.024 866.197 134.537 848.508 137.944L847.972 138.36C844.108 141.398 841.439 145.827 838.669 149.743C826.247 167.335 800.303 159.545 783.022 155.672C780.367 155.077 775.239 157.632 772.682 157.675C752.679 158.006 744.658 165.993 728.538 174.751L724.139 172.836C721.748 171.94 718.968 171.323 716.47 170.686L712.092 170.177L703.832 166.491L701.801 166.029Z"/><path fill="#D8CCC8" d="M703.832 166.491C716.296 159.599 732.698 146.435 745.641 145.019L746.115 145.489C743.453 148.218 738.634 150.128 735.335 152.092C726.746 157.206 718.17 162.122 712.092 170.177L703.832 166.491Z"/><path fill="#D8CCC8" d="M716.47 170.686C721.094 167.068 755.784 149.233 761.373 149.41L761.806 150.064C761.118 151.854 760.377 152.437 758.312 153.224C745.046 158.277 734.27 161.901 724.139 172.836C721.748 171.94 718.968 171.323 716.47 170.686Z"/><path fill="#A99C99" d="M848.627 144.769C862.281 139.255 868.235 141.111 882.475 141.868C892.646 142.409 904.464 138.512 913.734 134.589C914.756 134.156 916.042 134.083 917.105 134.397C919.493 138.146 911.421 142.39 908.51 144.061C898.849 149.328 888.073 145.18 878.343 148.917C863.341 154.677 852.609 171.789 837.257 175.613C823.645 179.004 807.715 172.052 794.67 171.181C781.397 170.294 760.144 179.263 749.17 186.327L746.337 185.31C755.442 172.027 772.364 170.07 774.77 167.248L774.242 166.738C763.613 166.963 747.507 177.169 740.797 176.872C740.743 169.17 772.1 161.332 778.263 162.105C805.777 165.556 830.456 172.979 848.627 144.769Z"/><path fill="#A99C99" d="M758.261 189.06C764.993 182.159 779.787 175.323 789.623 174.244C791.341 174.056 794.386 175.185 796.11 175.781C789.734 177.231 785.373 178.052 779.475 181.098C773.852 184.002 766.827 188.895 760.818 190.615L758.261 189.06Z"/><path fill="#D8CCC8" d="M615.581 370.035C618.203 368.992 621.869 368.115 624.692 368.682C639.866 371.729 655.171 377.207 669.421 383.274C673.432 384.983 672.696 384.874 676.962 384.777C674.157 385.474 674.252 384.928 673.186 386.697C672.721 396.34 686.545 406.756 692.92 412.34C693.477 412.828 695.494 416.748 695.961 417.671L695.627 424.124L690.947 431.152C692.484 440.438 695.342 444.381 697.075 453.012C697.944 457.341 693.111 463.752 692.873 467.612C692.184 478.781 697.303 485.044 689.536 495.543C685.388 501.152 676.974 506.094 674.591 511.903C670.895 520.915 676.661 532.528 673.544 542.775C670.319 553.372 659.243 558.46 656.63 569.344C654.93 576.03 656.266 582.899 655.739 589.707C654.99 599.403 644.526 604.212 639.371 611.684C633.003 620.915 630.931 631.122 622.166 638.826C615.979 644.264 608.924 642.954 602.163 646.96C599.947 648.32 597.634 654.274 594.434 656.893L593.467 656.14C592.894 653.24 593.17 650.183 593.282 647.211C599.297 638.88 605.135 640.486 609.431 628.713C614.837 613.892 617.964 607.313 613.653 591.393C607.577 568.958 584.549 563.231 575.841 542.791C572.008 533.727 575.68 517.377 575.159 507.513C574.687 498.592 570.105 481.925 573.121 473.613C576.819 463.429 588.825 453.14 590.692 442.402C593.448 426.554 591.318 409.91 598.352 394.738C602.555 385.671 608.821 378 615.38 370.598C615.447 370.41 615.514 370.222 615.581 370.035Z"/><path fill="#A99C99" d="M633.783 374.474C635.409 375.3 635.522 375.322 636.716 376.657C635.402 380.806 630.424 385.624 628.646 389.093C627.006 392.389 625.935 396.562 624.555 399.888C617.08 417.898 618.609 433.472 618.337 452.332C618.164 464.339 607.631 483.274 611.644 495.448C614.46 503.99 624.105 509.664 628.869 519.353C628.249 537.97 617.204 542.518 617.092 558.607C616.492 568.871 630.476 581.054 631.123 589.31C632.335 604.793 629.823 626.648 616.748 636.468C615.149 637.034 614.731 637.336 613.072 636.935C612.923 635.343 617.098 628.526 617.81 625.183C620.473 612.677 620.851 602.562 619.579 590.27C617.567 570.829 607.559 572.001 602.129 556.746C598.281 545.937 606.47 530.946 604.818 518.973C603.491 509.35 593.156 500.544 593.913 492.431C594.682 480.796 609.521 464.134 611.105 453.628C614.685 429.897 606.757 406.892 623.411 385.525C626.271 381.855 630.337 378.001 633.783 374.474Z"/><path fill="#A99C99" d="M619.85 373.203C622.017 373.169 623.194 373.852 624.385 375.497C624.406 379.125 617.995 384.727 615.425 388.472C613.603 391.127 612.189 394.039 611.231 397.113C605.329 416.135 609.424 438.232 604.445 457.789C601.882 467.853 593.734 473.366 590.604 482.973C588.572 487.828 589.003 500.721 592.682 504.665C606.141 519.094 601.059 528.92 597.345 546.207C596.75 548.978 598.005 554.649 596.9 557.851L595.936 558.016L594.874 556.57C594.084 555.711 590.674 552.633 589.778 551.842C573.16 537.161 586.248 528.922 583.756 511.848C582.238 501.447 577.906 495.279 577.252 484.69C576.224 468.029 585.476 460.16 596.366 448.646C598.82 435.265 598.872 428.092 598.985 414.638C599.151 394.924 605.836 385.889 619.85 373.203Z"/><path fill="#A99C99" d="M649.061 380.241C650.827 380.753 650.107 380.29 651.309 381.665C649.145 396.1 644.702 405.783 647.451 421.507C649.612 433.871 657.226 440.8 658.461 452.794C658.797 456.061 658.115 461.408 657.81 464.838C662.482 472.844 665.944 470.456 671.352 482.637C670.952 483.871 669.615 488.337 669.035 489.123C666.066 493.145 662.556 495.298 661.378 500.573C658.601 513.01 670.831 526.451 668.288 538.12C666.708 545.366 658.335 551.588 654.63 558.387C651.431 564.259 651.063 566.983 649.62 573.45C649.371 576.24 649.725 579.355 646.448 579.483C638.395 574.606 641.239 567.392 639.246 560.153L639.023 559.359C640.844 554.483 643.644 550.696 646.203 546.341C654.769 531.766 655.258 522.882 651.91 506.828C649.941 497.389 651.65 491.588 657.085 483.948L656.945 481.227C656.44 472.303 656.264 469.627 649.609 463.672C650.208 450.702 642.898 449.227 640.707 435.879C638.727 423.813 642.133 389.246 649.061 380.241Z"/><path fill="#A99C99" d="M649.742 465.899C650.095 466.049 650.251 466.087 650.565 466.375C656.113 471.44 647.845 486.902 647.418 493.361C647.028 499.266 648.573 504.674 649.591 510.419C652.567 527.21 648.913 534.409 639.592 547.897C633.217 557.124 635.469 566.038 637.333 576.338C640.323 579.718 647.553 582.837 648.609 587.114C650.761 595.827 638.714 603.92 634.875 610.565C634.77 610.746 634.669 610.93 634.567 611.112C634.29 612.136 634.295 612.191 633.459 612.831C631.238 609.999 635.045 596.261 633.807 589.503C632.484 582.287 627.951 576.804 624.278 570.668C621.911 566.715 620.276 562.258 620.964 557.583C622.348 548.182 630.754 539.599 632.75 529.679C634.658 520.201 629.911 510.435 633.188 500.919C636.163 492.28 644.463 487.638 647.705 479.327C649.384 475.025 648.644 470.352 649.742 465.899Z"/><path fill="#A99C99" d="M640.886 379.127C645.398 382.806 644.625 383.874 643.213 389.232C636.103 416.209 631.947 437.177 648.237 461.959C645.921 475.876 637.561 483.997 631.228 495.892C630.423 497.405 629.484 499.569 627.938 500.32C626.848 498.853 625.952 491.487 626.548 489.685C630.388 478.079 639.274 466.229 636.211 453.204C632.429 437.119 633.411 420.234 635.221 403.935C635.51 401.393 638.072 393.854 637.388 391.926C636.321 393.123 635.332 396.504 634.74 398.179C631.271 409.662 630.39 427.733 630.838 439.912C631.167 446.122 633.957 453.833 633.112 459.983C631.433 472.191 619.954 483.114 623.429 496.222C624.259 499.352 627.724 505.016 626.485 507.931L625.335 508.011C622.248 506.09 613.663 493.824 614.196 490.858C615.954 479.157 622.117 465.258 621.9 453.168C621.569 434.734 622.704 416.027 628.956 398.499C631.334 391.834 636.563 384.868 640.886 379.127Z"/><path fill="#A99C99" d="M653.465 382.044L658.026 383.474C658.441 385.018 658.291 384.157 657.959 385.577C657.578 387.208 655.975 392.794 656.04 394.207C656.25 398.754 656.846 404.318 657.386 408.894C658.391 417.425 656.796 428.904 662.066 436.098C664.062 438.823 668.938 440.443 671.621 443.574C676.759 449.569 675.608 458.01 675.234 465.405C679.451 473.4 682.866 472.598 686.466 479.035C692.67 490.128 676.591 497.18 672.035 505.256C670.992 507.106 669.842 511.083 669.177 513.256C668.801 514.551 667.283 517.928 666.698 519.334C665.972 514.937 665.413 509.638 664.825 505.157C664.995 504.703 665.164 504.25 665.334 503.797L665.579 503.204C667.814 497.732 674.419 494.034 675.637 487.927C677.395 479.114 667.806 471.681 662.663 464.019C662.882 460.638 663.678 457.841 664.167 454.673C665.018 447.885 660.164 441.144 656.659 435.727C647.012 420.817 649.399 398.731 653.465 382.044Z"/><path fill="#A99C99" d="M661.574 385.035C661.99 385.338 662.406 385.641 662.821 385.944C663.682 397.488 661.545 407.376 671.66 415.725C677.048 420.172 675.246 425.9 674.998 431.911L682.424 445.904C684.605 446.964 687.954 447.722 689.697 449.063C696.358 454.187 690.77 459.948 689.691 466.603C689.092 470.292 689.135 470.605 689.46 474.461L688.739 475.499L687.356 475.302C684.018 473.101 681.672 465.893 679.264 461.599C681.078 452.526 679.921 449.324 675.017 441.663C673.854 441.087 672.691 440.505 671.568 439.853C667.369 437.418 665.183 434.41 663.994 429.681C662.048 421.942 657.943 391.045 661.574 385.035Z"/><path fill="#A99C99" d="M665.182 386.944C670.011 390.354 671.223 405.085 687.359 414.656C691.988 425.366 689.531 424.56 686.674 435.756C687.387 437.608 688.202 440.293 688.843 442.211C688.459 444.27 688.086 444.131 686.507 445.005C675.259 438.649 685.798 421.406 679.617 417.265C666.9 408.746 664.634 402.727 665.182 386.944Z"/><path fill="#D8CCC8" d="M857.385 254.24C863.05 251.987 869.081 248.741 874.838 246.252C889.563 239.886 903.548 243.088 917.724 249.091C929.242 253.969 939.014 262.759 950.948 266.786C972.969 274.217 988.82 263.619 1007.4 281.689C1012.41 286.569 1018.02 292.688 1020.2 299.529C1023.88 311.087 1024.23 322.287 1031.54 332.822C1033.73 336.122 1039 340.619 1042.34 342.406C1061.85 352.83 1068.55 363.17 1066.38 386.033C1065.97 390.318 1066.66 405.01 1064.87 408.439L1063.95 407.95C1063.58 406.288 1063.73 405.551 1063.52 404.075C1061.39 389.203 1057.59 375.661 1041.94 371.36C1038.79 372.027 1034.86 372.414 1032.49 372.893C1021.31 375.151 1018.97 377.137 1008.69 371.375C1008.19 369.566 1007.56 366.972 1006.98 365.262C986.668 348.057 984.645 367.174 962.339 360.726C951.945 345.527 946.175 356.62 939.932 354.888L939.182 354.346C937.903 353.488 935.213 349.305 932.823 347.102L927.382 344.263C914.288 337.503 912.939 328.903 907.266 316.485C905.48 315.537 896.977 311.382 895.947 310.331C885.122 299.274 881.829 294.138 864.973 299.883C855.768 289.517 848.271 283.042 837.88 273.982L834.558 273.968C834.214 275.086 834.292 274.773 834.308 274.952C832.545 273.842 832.034 273.4 830.51 271.971C831.039 270.241 830.201 270.323 831.482 268.538L831.197 267.981C836.475 267.315 837.827 266.406 842.305 263.426C844.798 264.81 846.872 266.245 849.213 267.659C857.318 272.552 857.562 283.74 867.999 285.482C874.483 286.564 877.844 282.635 878.572 276.696C877.99 274.035 860.253 257.144 857.385 254.24Z"/><path fill="#FAE9C3" d="M842.305 263.426C844.798 264.81 846.872 266.245 849.213 267.659C857.318 272.552 857.562 283.74 867.999 285.482C874.483 286.564 877.844 282.635 878.572 276.696C881.584 279.568 891.687 288.373 893.459 290.433C902.635 301.107 925.463 331.773 927.382 344.263C914.288 337.503 912.939 328.903 907.266 316.485C905.48 315.537 896.977 311.382 895.947 310.331C885.122 299.274 881.829 294.138 864.973 299.883C855.768 289.517 848.271 283.042 837.88 273.982L834.558 273.968C834.214 275.086 834.292 274.773 834.308 274.952C832.545 273.842 832.034 273.4 830.51 271.971C831.039 270.241 830.201 270.323 831.482 268.538L831.197 267.981C836.475 267.315 837.827 266.406 842.305 263.426Z"/><path fill="#CEC1C0" d="M831.482 268.538L837.88 273.982L834.558 273.968C834.214 275.086 834.292 274.773 834.308 274.952C832.545 273.842 832.034 273.4 830.51 271.971C831.039 270.241 830.201 270.323 831.482 268.538Z"/><path fill="#A99C99" d="M932.823 347.102C932.877 340.601 929.925 335.979 929.608 330.516C938.986 323.133 953.869 336.245 961.876 340.417C965.701 342.41 973.486 340.643 978.042 341.496C983.491 342.516 992.114 348.074 993.862 353.419C993.457 354.174 993.41 354.772 992.51 354.765C983.557 354.699 980.087 353.744 971.284 356.235C963.224 352.457 953.522 348.125 944.832 351.681C943.266 352.322 940.13 353.151 939.182 354.346C937.903 353.488 935.213 349.305 932.823 347.102Z"/><path fill="#A99C99" d="M891.757 251.928C899.136 250.661 917.189 254.449 922.733 258.25C938.528 269.077 951.167 273.926 970.331 276.481C975.145 277.122 985.494 278.549 989.835 280.719C999.379 285.489 1006.32 293.795 1015.5 300.006C1016.53 303.596 1019.15 310.003 1019.73 313.342C1022.87 331.538 1027.68 337.389 1043.23 348.014C1047.78 351.251 1054.15 355.101 1057.19 359.855C1059.61 363.65 1066.39 380.014 1061.66 382.726C1058.4 380.961 1052.73 372.394 1049.47 369.152C1036.79 370.848 1026.85 372.213 1014.2 369.278C1009.03 362.457 1011.61 362.117 1003 354.913C1003.08 337.196 994.33 325.554 976.237 322.635C951.917 333.605 947.897 307.6 922.257 323.822C918.809 318.135 913.807 311.937 909.69 306.576C907.493 303.623 904.767 299.634 909.829 297.398C924.464 290.934 935.396 305.641 948.854 309.213C964.06 313.408 978.993 307.626 994.28 312.833C1016.53 320.413 1013.43 332.467 1020.92 350.625C1024.78 359.995 1039.11 364.775 1048.44 367.831C1040.12 360.178 1026.62 355.623 1021.74 342.218C1020.02 337.527 1019.25 328.92 1017.29 325.01C1015.24 320.915 1008.38 317.474 1004.88 312.274C989.569 289.562 986.745 286.858 959.524 289.88C954.978 290.384 948.369 290.106 943.677 288.229C932.269 283.666 932.431 273.922 918.955 269.307C903.814 264.122 893.466 267.83 879.891 273.851C856.626 255.911 875.544 254.913 891.757 251.928Z"/><path fill="#A99C99" d="M894.066 272.637C901.664 272.872 919.637 274.526 925.537 278.918C932.956 284.44 936.081 289.669 946.459 292.301C959.5 295.609 974.429 290.027 986.801 296.345C989.605 297.777 995.962 303.861 996.885 307.237L996.321 308.133C993.933 308.503 991.884 307.161 989.566 306.083C978.876 303.391 962.753 308.245 952.054 305.445C933.723 300.648 923.476 284.168 902.686 293.453C899.492 291.418 887.048 280.052 885.883 276.421L886.485 275.365C889.319 273.737 890.912 273.451 894.066 272.637Z"/><path fill="#A99C99" d="M952.054 326.982C964.456 328.74 962.823 331.273 976.423 327.601C987.275 324.671 999.554 341.047 1001.14 351.716L1000.59 352.147C998.366 352.429 991.062 343.033 988.559 341.403C987.081 340.44 984.735 338.447 983.073 337.315C972.705 336.591 963.491 339.725 953.694 330.988C951.804 329.303 952.12 329.241 952.054 326.982Z"/><defs><linearGradient id="gradient_0" gradientUnits="userSpaceOnUse" x1="413.65533" y1="215.10184" x2="506.54321" y2="248.10606"><stop offset="0" stop-color="#FEEDC6"/><stop offset="1" stop-color="#FBDDCA"/></linearGradient></defs><path fill="url(#gradient_0)" d="M443.988 290.434C452.238 296.587 462.413 309.607 466.41 319.078C467.818 322.415 467.896 326.035 469.146 329.54C470.289 332.741 474.44 338.736 474.685 341.71L473.907 341.721C471.634 338.098 468.6 335.607 466.94 332.282C464.044 326.481 462.517 315.233 458.125 310.554C449.128 300.968 432.668 292.735 423.573 283.305C417.933 277.456 414.959 258.221 412.954 250.281C412.405 248.107 409.546 244.496 409.251 242.663C408.786 239.778 408.829 235.238 409.019 232.15C409.519 224.014 412.558 212.37 417.51 205.825C418.393 204.657 422.771 202.019 424.421 200.104C427.384 196.664 429.889 191.401 432.861 188.559C439.84 181.888 448.662 178.635 456.681 173.946C475.356 163.027 492.084 154.898 508.664 140.372C497.072 157.547 486.92 160.22 470.773 171.712C469.131 172.881 466.617 175.502 466.381 177.633L468.376 180.788C464.345 182.743 461.061 183.366 456.966 185.015C453.618 186.364 449.771 188.342 446.493 189.942C443.789 194.059 442.181 197.541 440.025 201.879C435.604 210.772 427.056 220.519 429.396 230.977C430.691 236.764 433.326 241.91 434.901 247.505C435.637 250.121 436.419 250.079 437.527 252.233C436.255 252.818 436.27 253.054 435.044 252.967C433.659 269.808 434.529 276.093 445.472 289.006L443.988 290.434Z"/><path fill="#039C9C" d="M435.044 252.967C433.659 269.808 434.529 276.093 445.472 289.006L443.988 290.434C432.749 280.478 426.819 266.907 435.044 252.967Z"/></svg>